<?xml version="1.0" encoding="UTF-8" standalone="no"?>
<svg
   xmlns:dc="http://purl.org/dc/elements/1.1/"
   xmlns:cc="http://creativecommons.org/ns#"
   xmlns:rdf="http://www.w3.org/1999/02/22-rdf-syntax-ns#"
   xmlns:svg="http://www.w3.org/2000/svg"
   xmlns="http://www.w3.org/2000/svg"
   xmlns:sodipodi="http://sodipodi.sourceforge.net/DTD/sodipodi-0.dtd"
   xmlns:inkscape="http://www.inkscape.org/namespaces/inkscape"
   id="svg2"
   viewBox="0 0 741.83 542.75"
   version="1.1"
   sodipodi:docname="Cute-Cloud.svg"
   inkscape:version="0.92.3 (2405546, 2018-03-11)">
  <sodipodi:namedview
     pagecolor="#ffffff"
     bordercolor="#666666"
     borderopacity="1"
     objecttolerance="10"
     gridtolerance="10"
     guidetolerance="10"
     inkscape:pageopacity="0"
     inkscape:pageshadow="2"
     inkscape:window-width="3840"
     inkscape:window-height="2079"
     id="namedview2722"
     showgrid="false"
     inkscape:zoom="2.4597284"
     inkscape:cx="309.40956"
     inkscape:cy="155.74755"
     inkscape:window-x="0"
     inkscape:window-y="0"
     inkscape:window-maximized="1"
     inkscape:current-layer="svg2" />
  <title
     id="title4644">Cute Cloud</title>
  <defs
     id="defs4">
    <filter
       id="filter3941"
       width="1.96"
       y="-.48"
       x="-.48"
       height="1.96"
       color-interpolation-filters="sRGB">
      <feGaussianBlur
         id="feGaussianBlur3943"
         stdDeviation="13.142858" />
    </filter>
  </defs>
  <path
     id="path3113"
     d="M 346.274,0.05 C 296.948,0.068 249.827,31.994 230.584,77.112 198.092,53.685 152.59,55.269 118.124,73.6072 c -33.608,16.499 -62.206,48.192 -66.005,86.63 -0.77792,10.213 1.1877,20.393 3.75,30.219 -40.835,20.72 -65.691,71.469 -52.151,116.24 6.3322,20.418 21.324,37.584 39.901,47.698 -15.577,25.558 -25.565,58.051 -15.113,87.434 11.44,29.491 44.266,45.839 74.925,44.503 16.772,-0.0681 33.337,-3.8896 49.062,-9.5312 34.196,52.143 103.93,78.164 163.92,60.382 23.625,-7.7025 44.881,-22.894 59.173,-43.226 46.635,31.732 110.74,31.15 159.91,5.375 33.67,-18.249 59.81,-53.439 61.238,-92.53 -1.2938,-4.3736 3.9963,-1.5124 6.2309,-2.6884 61.631,-6.7966 111.99,-65.413 109.5,-127.47 0.3828,-5.6093 -3.1171,-13.312 3.0938,-16.562 27.946,-25.115 34.487,-70.439 15.344,-102.69 -17.184,-32.397 -52.427,-53.962 -88.938,-55.5 -2.6532,-46.033 -38.923,-86.057 -83.058,-97.14 -43.858,-12.28 -94.593,0.2331 -125.88,33.453 -20.901,-25.333 -54.081,-39.076 -86.75,-38.156 z"
     inkscape:connector-curvature="0"
     style="fill:#999999" />
  <path
     id="path3003"
     d="m 348.694,12.02 c -47.272,-0.21813 -97.018,29.413 -112.47,86.188 -66.738,-72.821 -206.98,18.747 -164.28,98.25 -70.967,27.238 -84.364,126.51 -10.562,152.47 -67.131,97.723 11.296,151.4 96.063,112.66 35.763,71.252 164.57,105.13 214.84,14.562 64.712,59.464 216.83,29.88 212.88,-83.594 63.104,4.1844 126.96,-57.559 113.47,-134.44 67.197,-47.916 17.43,-149.7 -68.844,-143.81 5.2658,-97.71 -130.93,-142.55 -197.84,-56.562 C 413.967,27.119 381.96,12.179 348.701,12.025 Z"
     inkscape:connector-curvature="0"
     style="fill:#ffffff" />
  <metadata
     id="metadata2719">
    <rdf:RDF>
      <cc:Work>
        <dc:format>image/svg+xml</dc:format>
        <dc:type
           rdf:resource="http://purl.org/dc/dcmitype/StillImage" />
        <cc:license
           rdf:resource="http://creativecommons.org/licenses/publicdomain/" />
        <dc:publisher>
          <cc:Agent
             rdf:about="http://openclipart.org/">
            <dc:title>Openclipart</dc:title>
          </cc:Agent>
        </dc:publisher>
        <dc:title>Cute Cloud</dc:title>
        <dc:date>2013-05-30T17:45:12</dc:date>
        <dc:description>Cute cloud</dc:description>
        <dc:source>https://openclipart.org/detail/178743/cute-cloud-by-uroesch-178743</dc:source>
        <dc:creator>
          <cc:Agent>
            <dc:title>uroesch</dc:title>
          </cc:Agent>
        </dc:creator>
        <dc:subject>
          <rdf:Bag>
            <rdf:li>baby blue</rdf:li>
            <rdf:li>cloud</rdf:li>
            <rdf:li>cute</rdf:li>
            <rdf:li>kawaii</rdf:li>
            <rdf:li>smiling cloud</rdf:li>
          </rdf:Bag>
        </dc:subject>
      </cc:Work>
      <cc:License
         rdf:about="http://creativecommons.org/licenses/publicdomain/">
        <cc:permits
           rdf:resource="http://creativecommons.org/ns#Reproduction" />
        <cc:permits
           rdf:resource="http://creativecommons.org/ns#Distribution" />
        <cc:permits
           rdf:resource="http://creativecommons.org/ns#DerivativeWorks" />
      </cc:License>
    </rdf:RDF>
  </metadata>
</svg>
